<svg width="24" height="25" viewBox="0 0 24 25" fill="none" xmlns="http://www.w3.org/2000/svg">
<path d="M24 18.5152V6.51414C24 3.20039 21.3125 0.514648 17.999 0.514648H5.99899C2.68551 0.514648 0 3.20039 0 6.51414V24.5146H17.999C21.3125 24.5146 23.998 21.8289 23.998 18.5152H24ZM4 20.5143V7.51574C4 5.85785 5.34276 4.51499 7.0005 4.51499H16.9995C18.6572 4.51499 20 5.85785 20 7.51574V17.5156C20 19.1735 18.6572 20.5163 16.9995 20.5163H4V20.5143Z" fill="#4D4944"/>
<path d="M16 15.0156V10.0156C16 9.1877 15.3276 8.51526 14.4997 8.51526H9.50025C8.67239 8.51526 8 9.1877 8 10.0156V16.5159H14.4997C15.3276 16.5159 16 15.8435 16 15.0156Z" fill="#4D4944"/>
</svg>
